<svg width="28" height="16" viewBox="0 0 28 16" fill="none" xmlns="http://www.w3.org/2000/svg">
<path d="M26.9998 9.00098C27.552 9.00098 27.9998 8.55326 27.9998 8.00098C27.9998 7.44869 27.552 7.00098 26.9998 7.00098V9.00098ZM0.29265 7.29387C-0.097874 7.68439 -0.097874 8.31756 0.29265 8.70808L6.65661 15.072C7.04714 15.4626 7.6803 15.4626 8.07082 15.072C8.46135 14.6815 8.46135 14.0484 8.07082 13.6578L2.41397 8.00098L8.07082 2.34412C8.46135 1.9536 8.46135 1.32043 8.07082 0.929909C7.6803 0.539385 7.04714 0.539385 6.65661 0.929909L0.29265 7.29387ZM26.9998 7.00098H0.999757V9.00098H26.9998V7.00098Z" fill="#F2F2F2"/>
</svg>
