<svg width="93" height="32" viewBox="0 0 93 32" fill="none" xmlns="http://www.w3.org/2000/svg">
<path d="M16 1.88239C12.2986 2.00583 8.79386 3.5788 6.2414 6.26221C3.68894 8.94562 2.29314 12.5246 2.35487 16.2275C2.4166 19.9305 3.93093 23.4609 6.57142 26.0577C9.21191 28.6546 12.7671 30.1098 16.4706 30.1098C20.174 30.1098 23.7292 28.6546 26.3697 26.0577C29.0102 23.4609 30.5245 19.9305 30.5862 16.2275C30.648 12.5246 29.2522 8.94562 26.6997 6.26221C24.1472 3.5788 20.6426 2.00583 16.9411 1.88239H16ZM35.7647 1.88239C32.0633 2.00583 28.5586 3.5788 26.0061 6.26221C23.4537 8.94562 22.0578 12.5246 22.1196 16.2275C22.1813 19.9305 23.6956 23.4609 26.3361 26.0577C28.9766 28.6546 32.5318 30.1098 36.2353 30.1098C39.9387 30.1098 43.4939 28.6546 46.1344 26.0577C48.7749 23.4609 50.2892 19.9305 50.351 16.2275C50.4127 12.5246 49.0169 8.94562 46.4644 6.26221C43.912 3.5788 40.4073 2.00583 36.7059 1.88239H35.7647ZM55.5294 1.88239C51.828 2.00583 48.3233 3.5788 45.7708 6.26221C43.2184 8.94562 41.8226 12.5246 41.8843 16.2275C41.946 19.9305 43.4603 23.4609 46.1008 26.0577C48.7413 28.6546 52.2965 30.1098 56 30.1098C59.7034 30.1098 63.2586 28.6546 65.8991 26.0577C68.5396 23.4609 70.0539 19.9305 70.1157 16.2275C70.1774 12.5246 68.7816 8.94562 66.2291 6.26221C63.6767 3.5788 60.172 2.00583 56.4706 1.88239H55.5294ZM75.2941 1.88239C71.5927 2.00583 68.088 3.5788 65.5355 6.26221C62.9831 8.94562 61.5873 12.5246 61.649 16.2275C61.7107 19.9305 63.2251 23.4609 65.8655 26.0577C68.506 28.6546 72.0612 30.1098 75.7647 30.1098C79.4681 30.1098 83.0233 28.6546 85.6638 26.0577C88.3043 23.4609 89.8186 19.9305 89.8804 16.2275C89.9421 12.5246 88.5463 8.94562 85.9938 6.26221C83.4414 3.5788 79.9367 2.00583 76.2353 1.88239H75.2941Z" stroke="black" stroke-width="2.88235"/>
</svg>
