<svg width="32" height="32" viewBox="0 0 32 32" fill="none" xmlns="http://www.w3.org/2000/svg">
<path fill-rule="evenodd" clip-rule="evenodd" d="M32 16C32 18.1012 31.5861 20.1817 30.7821 22.1229C29.978 24.0641 28.7994 25.828 27.3137 27.3137C25.828 28.7994 24.0641 29.978 22.1229 30.7821C20.1817 31.5861 18.1012 32 16 32C13.8989 32 11.8183 31.5861 9.87706 30.7821C7.93586 29.978 6.17203 28.7994 4.68629 27.3137C3.20055 25.828 2.022 24.0641 1.21793 22.1229C0.413852 20.1817 -3.13096e-08 18.1012 0 16C6.32325e-08 11.7565 1.68571 7.68687 4.68629 4.68629C7.68687 1.68571 11.7565 0 16 0C20.2435 0 24.3131 1.68571 27.3137 4.68629C30.3143 7.68687 32 11.7565 32 16ZM3.55556 16C3.55556 19.3005 4.86666 22.4658 7.20045 24.7996C9.53424 27.1333 12.6995 28.4444 16 28.4444V16H28.4444C28.4444 12.6995 27.1333 9.53423 24.7996 7.20045C22.4658 4.86666 19.3005 3.55556 16 3.55556V16H3.55556Z" fill="black"/>
</svg>
