<svg width="33" height="14" viewBox="0 0 33 14" fill="none" xmlns="http://www.w3.org/2000/svg">
<g clip-path="url(#clip0_605_23)">
<path d="M27.2898 9.52034C27.2969 9.56582 27.3566 9.60939 27.4144 9.63C27.4357 9.63711 27.4461 9.65133 27.4238 9.69965C27.259 10.0531 27.1073 10.2568 26.9007 10.5639C26.7104 10.8477 26.4963 11.0691 26.237 11.282C25.8459 11.6057 25.3027 11.958 24.8536 11.7211C24.6542 11.6176 24.5678 11.3384 24.5717 11.1124C24.5812 10.4769 24.8639 9.8245 25.386 9.18327C26.0224 8.39974 26.726 7.99334 27.1877 8.21547C27.6655 8.44334 27.513 8.99645 27.2991 9.4306C27.2825 9.46424 27.2825 9.49265 27.2896 9.52013M32.4162 4.56838C32.4505 4.50774 32.4144 4.46346 32.3378 4.46346C31.9388 4.46346 31.4152 4.46436 30.9995 4.46436C30.9004 4.46436 30.8493 4.47618 30.8026 4.56856C30.6491 4.86258 28.7789 7.66546 28.4308 8.20976C28.3721 8.29266 28.3006 8.28103 28.2923 8.18605C28.257 7.86277 27.9778 7.49115 27.5379 7.31334C27.2027 7.17738 26.875 7.15273 26.5343 7.19797C25.9191 7.28064 25.3711 7.60511 24.8894 7.97107C24.1632 8.52309 23.5367 9.23861 22.7279 9.76727C22.2864 10.0551 21.6818 10.3061 21.2773 9.9314C20.9111 9.59194 20.9525 8.83802 21.5127 8.2549C21.5717 8.19379 21.6425 8.2454 21.6314 8.29965C21.5785 8.56335 21.6432 8.82562 21.8436 9.0095C22.088 9.2286 22.4377 9.25333 22.7371 9.10708C23.0904 8.93204 23.298 8.59405 23.3584 8.21045C23.452 7.61539 22.994 7.09056 22.4208 7.04845C21.9552 7.01576 21.5087 7.17776 21.0736 7.53685C20.8555 7.71781 20.7316 7.8515 20.5429 8.1198C20.497 8.18589 20.4264 8.19249 20.4285 8.0949C20.4498 7.33304 20.135 6.9044 19.5052 6.89043C19.0163 6.87858 18.494 7.14399 18.0869 7.46857C17.6406 7.82698 17.2504 8.30195 16.832 8.74826C16.7799 8.80321 16.7347 8.80059 16.72 8.694C16.7081 8.18922 16.5805 7.7003 16.3469 7.3531C16.2642 7.23229 16.0902 7.17258 15.944 7.25406C15.8765 7.29101 15.6417 7.39904 15.4707 7.5367C15.3859 7.60658 15.3527 7.70774 15.3903 7.83738C15.6158 8.59152 15.5663 9.44895 15.2603 10.1731C14.9793 10.8364 14.4334 11.4346 13.7916 11.6371C13.3688 11.7711 12.9294 11.7055 12.6574 11.3307C12.2839 10.8134 12.4347 9.91383 12.9915 9.16686C13.4828 8.50911 14.1936 8.0913 14.9025 7.82227C14.9859 7.79006 15.0032 7.73652 14.9795 7.6657C14.9411 7.54916 14.8795 7.39043 14.8546 7.318C14.7895 7.14485 14.6075 7.11688 14.3852 7.14104C13.8701 7.20097 13.4054 7.37746 12.9464 7.62323C11.7445 8.26685 11.1419 9.5125 10.8778 10.1789C10.7506 10.4991 10.6419 10.6987 10.5014 10.8758C10.3119 11.114 10.0741 11.3308 9.63915 11.7127C9.59983 11.7478 9.57046 11.8207 9.60362 11.8887C9.64791 11.9806 9.87413 12.3001 9.93794 12.3286C10.0088 12.3634 10.0909 12.3144 10.1239 12.2911C10.4282 12.0848 10.7923 11.7579 10.9705 11.5361C11.033 11.46 11.0972 11.492 11.1304 11.6074C11.2967 12.2006 11.732 12.685 12.3341 12.8877C13.4362 13.2593 14.5792 12.7214 15.442 11.7849C15.9904 11.1896 16.1882 10.8068 16.3984 10.5466C16.7546 10.1052 17.4573 9.11793 18.2942 8.48405C18.6011 8.25026 18.9642 8.07195 19.1468 8.19039C19.2935 8.28537 19.3408 8.5061 19.1056 8.93381C18.2524 10.4919 16.997 12.3226 16.7667 12.7665C16.7246 12.8434 16.762 12.9041 16.8421 12.9041C17.2886 12.9019 17.7312 12.903 18.1365 12.903C18.204 12.9006 18.2341 12.8689 18.2679 12.8213C18.9228 11.7963 19.539 10.8207 20.1995 9.81209C20.2365 9.75264 20.2706 9.79785 20.272 9.82391C20.2862 10.0579 20.343 10.378 20.4821 10.5882C20.7318 10.9767 21.0856 11.1437 21.478 11.1463C21.7902 11.151 21.9482 11.1024 22.2849 10.9767C22.5589 10.875 22.7788 10.7417 22.9476 10.621C23.0462 10.5523 23.0635 10.6672 23.0611 10.6847C22.9095 11.4984 23.0967 12.4626 23.9054 12.8624C24.8732 13.3395 25.9364 12.6688 26.5482 12.0633C26.6081 12.0051 26.6723 12.0112 26.6785 12.137C26.6927 12.3682 26.796 12.6425 26.9872 12.8345C27.4999 13.349 28.5345 13.1451 29.5727 12.3415C30.2393 11.827 30.9368 11.1001 31.5668 10.3303C31.5905 10.3005 31.6075 10.2526 31.5621 10.2041C31.4661 10.1036 31.3273 9.98875 31.2322 9.90028C31.1888 9.86333 31.1251 9.87397 31.0887 9.90155C30.4428 10.5157 29.8615 11.2162 29.0213 11.7954C28.738 11.9932 28.2863 12.1528 28.0835 11.8781C28.0044 11.7715 28.0134 11.6241 28.0906 11.4307C28.3356 10.8198 32.214 4.91491 32.4153 4.56664" fill="black"/>
<path d="M14.1689 5.2809C14.1855 5.36854 14.2196 5.38562 14.2594 5.37827C14.457 5.33872 14.6732 5.17621 14.8012 4.98785C14.9177 4.81707 14.9724 4.57063 14.8566 4.47188C14.7533 4.38305 14.5851 4.40814 14.4605 4.51828C14.2122 4.73762 14.1368 5.04884 14.1688 5.28108M4.28386 12.8819C2.83776 12.8914 1.56376 11.9984 1.41756 10.4513C1.33632 9.59399 1.57864 8.82996 2.06377 8.20051C2.49425 7.63963 3.22266 7.17367 3.83922 7.05983C4.03985 7.02312 4.30943 7.04562 4.42087 7.17921C4.59568 7.38268 4.54544 7.60619 4.37063 7.69537C3.90024 7.93553 3.33423 8.34669 3.05416 8.90812C2.827 9.36636 2.78111 9.9186 3.12807 10.4447C3.7088 11.3215 5.32758 11.3456 6.8327 9.9473C7.20546 9.60508 7.53903 9.27627 7.87811 8.88679C8.54103 8.12882 8.76153 7.85261 9.64272 6.63031C9.65219 6.61609 9.65693 6.5976 9.65219 6.5886C9.64508 6.57202 9.63327 6.56964 9.60697 6.56727C9.01871 6.58385 8.50583 6.75892 8.00732 7.13147C7.86378 7.23616 7.65716 7.22147 7.5667 7.08361C7.46603 6.92775 7.53829 6.72485 7.70386 6.61028C8.5058 6.05255 9.38183 5.9514 10.2765 5.80042C10.2757 5.80042 10.3385 5.80278 10.3897 5.73551C10.7569 5.26419 11.0342 4.83905 11.4257 4.3624C11.8202 3.87879 12.3297 3.43469 12.719 3.10111C13.2624 2.63387 13.6109 2.47663 13.9651 2.28392C14.0584 2.23512 13.9532 2.17686 13.9248 2.17686C11.9474 1.80522 9.89212 1.32431 7.92834 2.0513C6.5683 2.55884 5.97229 3.63736 6.25897 4.35803C6.46291 4.86923 7.13524 4.95234 7.76469 4.64431C8.28748 4.38817 8.77128 3.97533 9.11424 3.44389C9.3061 3.14876 9.71041 3.36169 9.49197 3.87418C8.9173 5.22484 7.81948 6.29621 6.48222 6.34145C5.34415 6.3784 4.60986 5.54114 4.61225 4.50824C4.61699 2.47094 6.88496 1.12893 9.26853 0.928299C12.139 0.691076 14.8578 1.4557 17.7079 1.80141C19.8916 2.06585 21.9852 2.07135 24.1801 1.56713C24.4396 1.51075 24.6216 1.67632 24.6047 1.93839C24.5834 2.31721 24.2899 2.68205 23.567 3.07632C22.7449 3.52722 21.8848 3.66404 20.9865 3.67138C18.8144 3.69033 16.7911 2.84278 14.6973 2.38783C14.6997 2.4795 14.7238 2.58867 14.6471 2.64654C13.4873 3.50199 12.439 4.3707 11.7369 5.59083C11.7132 5.61902 11.725 5.64579 11.767 5.64295C12.3766 5.6105 12.9248 5.59485 13.4939 5.54937C13.5934 5.5399 13.5971 5.51621 13.5884 5.44373C13.5379 5.02317 13.6608 4.54359 14.0308 4.21371C14.4094 3.87423 14.8835 3.83563 15.1978 4.08012C15.5551 4.35853 15.5234 4.85924 15.328 5.23475C15.1291 5.61575 14.8005 5.81953 14.4851 5.91847C14.4851 5.91847 14.4188 5.93269 14.4287 5.99285C14.4406 6.08902 14.8708 6.32714 14.9076 6.39057C14.9431 6.45097 14.9242 6.54455 14.8595 6.61632C14.814 6.66843 14.7427 6.71722 14.6515 6.71557C14.5779 6.7141 14.5331 6.68857 14.4388 6.63764C14.246 6.53318 14.0051 6.36144 13.8443 6.15896C13.7896 6.09051 13.7616 6.08911 13.625 6.09669C13.0091 6.13222 12.0489 6.22507 11.3983 6.30632C11.2405 6.32527 11.2173 6.35533 11.1848 6.41005C10.1475 8.12059 9.03994 9.9652 7.82389 11.2002C6.51956 12.5244 5.43536 12.873 4.2844 12.882" fill="black"/>
</g>
<defs>
<clipPath id="clip0_605_23">
<rect width="32" height="12.2331" fill="white" transform="translate(0.780518 0.883453)"/>
</clipPath>
</defs>
</svg>
