<svg width="24" height="24" viewBox="0 0 24 24" fill="none" xmlns="http://www.w3.org/2000/svg">
<g clip-path="url(#clip0_1_61)">
<path d="M12 2.00023C15.2081 2.00023 15.7383 1.94397 17 2.00023C18.1726 2.05181 18.5779 2.83614 19 3.00023C19.5581 3.2159 19.5826 3.58296 20 4.00023C20.4221 4.42219 20.7843 4.44231 21 5.00023C21.1642 5.42219 21.9484 5.83282 22 7.00023C22.0563 8.26611 22 8.79804 22 12.0002C22 15.2071 22.0563 15.739 22 17.0002C21.9484 18.1723 21.1642 18.5783 21 19.0002C20.7843 19.5582 20.4174 19.583 20 20.0002C19.5779 20.4222 19.5581 20.7846 19 21.0002C18.5779 21.1643 18.1679 21.9487 17 22.0002C15.7336 22.0565 15.2034 22.0002 12 22.0002C8.79187 22.0002 8.26168 22.0565 7 22.0002C5.82744 21.9487 5.42212 21.1643 5 21.0002C4.44186 20.7846 4.41743 20.4175 4 20.0002C3.57788 19.5783 3.21575 19.5582 3 19.0002C2.83584 18.5783 2.05159 18.1676 2 17.0002C1.94372 15.7344 2 15.2024 2 12.0002C2 8.79336 1.94372 8.26142 2 7.00023C2.05159 5.82813 2.83584 5.42219 3 5.00023C3.21575 4.44231 3.58257 4.4175 4 4.00023C4.42212 3.57828 4.44186 3.2159 5 3.00023C5.42212 2.83614 5.83213 2.05181 7 2.00023C8.26168 1.94397 8.79187 2.00023 12 2.00023ZM12 0.000233155C8.74028 0.000233155 8.28044 -0.0560278 7 0.000233155C5.72425 0.0564941 4.75982 0.704863 4 1.00023C3.20735 1.30967 2.66602 1.32979 2 2.00023C1.3293 2.66599 1.30956 3.21258 1 4.00023C0.704516 4.76444 0.0562847 5.72498 1.68756e-06 7.00023C-0.0562813 8.28486 1.68756e-06 8.74178 1.68756e-06 12.0002C1.68756e-06 15.2587 -0.0562813 15.7203 1.68756e-06 17.0002C0.0562847 18.2755 0.704516 19.2407 1 20.0002C1.30956 20.7926 1.3293 21.3345 2 22.0002C2.66602 22.666 3.21204 22.6955 4 23.0002C4.76451 23.2956 5.72425 23.944 7 24.0002C8.28044 24.0565 8.74028 24.0002 12 24.0002C15.2597 24.0002 15.7196 24.0565 17 24.0002C18.2757 23.944 19.2402 23.2956 20 23.0002C20.788 22.6955 21.334 22.666 22 22.0002C22.666 21.3345 22.6951 20.7879 23 20.0002C23.2955 19.236 23.9437 18.2755 24 17.0002C24.0563 15.7203 24 15.2587 24 12.0002C24 8.74178 24.0563 8.28017 24 7.00023C23.9437 5.72498 23.2955 4.75976 23 4.00023C22.7045 3.2032 22.6707 2.66599 22 2.00023C21.334 1.33448 20.788 1.30498 20 1.00023C19.2355 0.704863 18.2757 0.0564941 17 0.000233155C15.7149 -0.0607162 15.2597 0.000233155 12 0.000233155Z" fill="white"/>
<path d="M12 6C8.68745 6 6 8.68745 6 12C6 15.3125 8.68745 18 12 18C15.3125 18 18 15.3125 18 12C18 8.68745 15.3125 6 12 6ZM12 16C9.85095 16 8 14.149 8 12C8 9.85095 9.85095 8 12 8C14.149 8 16 9.85095 16 12C16 14.149 14.149 16 12 16Z" fill="white"/>
<path d="M20 6C20 6.83062 19.8257 7 19 7C18.1694 7 17 6.82573 17 6C17 5.16938 18.1743 4 19 4C19.8257 4 20 5.17427 20 6Z" fill="white"/>
</g>
<defs>
<clipPath id="clip0_1_61">
<rect width="24" height="24" fill="white"/>
</clipPath>
</defs>
</svg>
