<svg width="32" height="33" viewBox="0 0 32 33" fill="none" xmlns="http://www.w3.org/2000/svg">
<path fill-rule="evenodd" clip-rule="evenodd" d="M23.0544 3.05242C27.894 5.59762 31.2 10.672 31.2 16.5212C31.2 22.3704 27.894 27.4608 23.0544 29.9904V28.2512C24.9052 27.144 26.4708 25.5948 27.61 23.7612L23.0544 21.912V19.098L28.0524 23.0028C29.0964 21.074 29.6816 18.8764 29.6816 16.5208C29.6816 11.5568 27.024 7.19402 23.0544 4.79082V3.05242ZM16.016 1.32922C18.5469 1.32922 20.9348 1.94602 23.0544 3.05242V4.79162C21.1088 3.62122 18.8312 2.92602 16.4272 2.84682L18.1668 15.2884L23.0544 19.0984V21.9124L15.984 19.0508L8.96125 21.928V19.1296L13.8804 15.288L15.6044 2.84642C13.1684 2.92562 10.9068 3.62122 8.96125 4.79082V3.05242C11.0652 1.94602 13.4692 1.32922 16.016 1.32922ZM23.0544 29.9904C20.9348 31.0968 18.5464 31.7288 16.016 31.7288C13.4696 31.7288 11.0656 31.0968 8.96165 30.006V28.2512C11.018 29.4996 13.4376 30.2112 16.016 30.2112C18.5784 30.2112 20.9828 29.4996 23.0544 28.2512V29.9904ZM8.96165 30.006C4.10565 27.4608 0.800049 22.3704 0.800049 16.5212C0.800049 10.672 4.10565 5.59762 8.96165 3.05242V4.79162C4.97565 7.19442 2.31845 11.5416 2.31845 16.5212C2.31845 18.8764 2.91965 21.106 3.96365 23.0344L8.96165 19.1296V21.928L4.42205 23.7928C5.56085 25.6116 7.11085 27.1444 8.96165 28.2512V30.006Z" fill="black"/>
</svg>
