<svg width="42" height="32" viewBox="0 0 42 32" fill="none" xmlns="http://www.w3.org/2000/svg">
<path d="M20.5907 30.1462C12.7902 30.1462 6.44378 23.7997 6.44378 15.9993C6.44378 15.5967 6.46444 15.1988 6.49895 14.8054L18.325 15.5438L13.2068 19.0818C13.1378 19.1301 13.0918 19.2106 13.0918 19.3003C13.0918 19.4475 13.2114 19.5694 13.3586 19.5694H34.2824C32.6952 25.6468 27.158 30.1465 20.5907 30.1465M20.5907 1.85212C28.3935 1.85212 34.7376 8.19857 34.7376 15.999C34.7376 16.3993 34.717 16.795 34.6847 17.186H34.6778L22.8518 16.4337L27.9838 12.9165C28.0551 12.8682 28.0988 12.7877 28.0988 12.698C28.0988 12.5485 27.9792 12.4288 27.832 12.4288H6.90112C8.48605 6.3515 14.0231 1.8518 20.5904 1.8518M40.8724 17.5793L37.0009 17.3331L36.5339 17.3032C36.5684 16.8731 36.5915 16.4382 36.5915 15.9989C36.5915 7.17738 29.4141 0 20.5902 0C12.9947 0 6.62465 5.32074 4.99637 12.4285H1.46074C1.26061 12.4285 1.08348 12.5228 0.970765 12.67L0.0667101 13.9191C0.0253112 13.972 0 14.0388 0 14.1101C0 14.2803 0.13802 14.4183 0.310547 14.4183L4.16595 14.6575L4.64902 14.6898C4.61451 15.1222 4.59155 15.557 4.59155 15.9987C4.59155 24.8202 11.7689 32 20.5905 32C28.186 32 34.5583 26.677 36.1843 19.5691H39.7222C39.9223 19.5691 40.0995 19.4748 40.2122 19.3276L41.1162 18.0785C41.1576 18.0256 41.1806 17.9589 41.1806 17.8876C41.1806 17.7173 41.0426 17.5793 40.8724 17.5793" fill="black"/>
</svg>
