<svg width="24" height="24" viewBox="0 0 24 24" fill="none" xmlns="http://www.w3.org/2000/svg">
<path d="M9.489 0.003L10.218 0H13.782L14.512 0.003L15.426 0.013L15.859 0.02L16.277 0.031L16.68 0.045L17.068 0.061L17.442 0.082L17.802 0.107L18.147 0.137L18.48 0.17C20.22 0.366 21.413 0.786 22.313 1.686C23.213 2.586 23.633 3.778 23.829 5.519L23.863 5.852L23.892 6.198L23.917 6.558L23.937 6.931L23.962 7.519L23.974 7.929L23.987 8.573L23.996 9.488L24 10.468L23.999 13.781L23.996 14.511L23.986 15.425L23.979 15.858L23.968 16.276L23.954 16.679L23.938 17.067L23.917 17.441L23.892 17.801L23.862 18.146L23.829 18.479C23.633 20.219 23.213 21.412 22.313 22.312C21.413 23.212 20.221 23.632 18.48 23.828L18.147 23.862L17.801 23.891L17.441 23.916L17.068 23.936L16.48 23.961L16.07 23.973L15.426 23.986L14.511 23.995L13.531 23.999L10.218 23.998L9.488 23.995L8.574 23.985L8.141 23.978L7.723 23.967L7.32 23.953L6.932 23.937L6.558 23.916L6.198 23.891L5.853 23.861L5.52 23.828C3.78 23.632 2.587 23.212 1.687 22.312C0.787 21.412 0.367 20.22 0.171 18.479L0.137 18.146L0.108 17.8L0.083 17.44L0.063 17.067L0.038 16.479L0.026 16.069L0.013 15.425L0.004 14.51L0 13.53L0.001 10.217L0.004 9.487L0.014 8.573L0.021 8.14L0.032 7.722L0.046 7.319L0.062 6.931L0.083 6.557L0.108 6.197L0.138 5.852L0.171 5.519C0.367 3.779 0.787 2.586 1.687 1.686C2.587 0.786 3.779 0.366 5.52 0.17L5.853 0.136L6.199 0.107L6.559 0.082L6.932 0.062L7.52 0.037L7.93 0.025L8.574 0.012L9.489 0.003ZM6.79 7.299H4.05C4.18 13.539 7.3 17.289 12.77 17.289H13.08V13.719C15.09 13.919 16.61 15.389 17.22 17.289H20.06C19.28 14.449 17.23 12.879 15.95 12.279C17.23 11.539 19.03 9.739 19.46 7.299H16.88C16.32 9.279 14.66 11.079 13.08 11.249V7.299H10.5V14.219C8.9 13.819 6.88 11.879 6.79 7.299Z" fill="white"/>
</svg>
